# xmcd
#
# Track frame offsets: 
#        150
#        14434
#        29515
#        44376
#        65524
#        85135
#        102266
#        118074
#        133084
#        148475
#        162823
#        178614
#        196714
#        211879
#        228538
#        244891
#        261546
#        279084
#        295054
#        310618
#
# Disc length: 4340 seconds
#
# Revision: 0
# Processed by: cddbd v1.5.2PL0 Copyright (c) Steve Scherf et al.
# Submitted via: ExactAudioCopy v0.99pb4
#
DISCID=2710f214
DTITLE=N'Sync - Music Collection
DYEAR=2001
DGENRE=Pop
TTITLE0=It's Gonna Be Me
TTITLE1=I'll Never Stop
TTITLE2=Bye Bye Bye
TTITLE3=This I Promise You
TTITLE4=Digital Get Down
TTITLE5=No Strings Attached
TTITLE6=Bringin' Da Noise
TTITLE7=If I'm Not The One
TTITLE8=It Makes Me Ill
TTITLE9=I Need Love
TTITLE10=You Got It
TTITLE11=I Just Wanna Be With You
TTITLE12=Kiss Me At Midnight
TTITLE13=For The Girl Who Has Every Thing
TTITLE14=Crazy For You
TTITLE15=All I Want Is You This Christmas
TTITLE16=Everything I Own
TTITLE17=Here We Go
TTITLE18=Tearin' Up My Heart
TTITLE19=I Want You Back
EXTD=
EXTT0=
EXTT1=
EXTT2=
EXTT3=
EXTT4=
EXTT5=
EXTT6=
EXTT7=
EXTT8=
EXTT9=
EXTT10=
EXTT11=
EXTT12=
EXTT13=
EXTT14=
EXTT15=
EXTT16=
EXTT17=
EXTT18=
EXTT19=
PLAYORDER=
